<?xml version="1.0" encoding="UTF-8" standalone="no"?>
<!-- Generator: Adobe Illustrator 16.0.3, SVG Export Plug-In . SVG Version: 6.00 Build 0)  -->

<svg
   xmlns:dc="http://purl.org/dc/elements/1.1/"
   xmlns:cc="http://creativecommons.org/ns#"
   xmlns:rdf="http://www.w3.org/1999/02/22-rdf-syntax-ns#"
   xmlns:svg="http://www.w3.org/2000/svg"
   xmlns="http://www.w3.org/2000/svg"
   xmlns:sodipodi="http://sodipodi.sourceforge.net/DTD/sodipodi-0.dtd"
   xmlns:inkscape="http://www.inkscape.org/namespaces/inkscape"
   version="1.1"
   id="Ebene_1"
   x="0px"
   y="0px"
   width="741.1662"
   height="220"
   viewBox="0 0 741.1662 220"
   enable-background="new 0 0 220 220"
   xml:space="preserve"
   inkscape:version="0.91 r13725"
   sodipodi:docname="Logo-Node-BLUE.svg"
   inkscape:export-filename="Y:\Homegear\Grafiken\Logos\Logo-Node-BLUE.png"
   inkscape:export-xdpi="14.727273"
   inkscape:export-ydpi="14.727273"><metadata
     id="metadata23"><rdf:RDF><cc:Work
         rdf:about=""><dc:format>image/svg+xml</dc:format><dc:type
           rdf:resource="http://purl.org/dc/dcmitype/StillImage" /><dc:title /></cc:Work></rdf:RDF></metadata><defs
     id="defs21" /><sodipodi:namedview
     pagecolor="#ffffff"
     bordercolor="#666666"
     borderopacity="1"
     objecttolerance="10"
     gridtolerance="10"
     guidetolerance="10"
     inkscape:pageopacity="0"
     inkscape:pageshadow="2"
     inkscape:window-width="2145"
     inkscape:window-height="995"
     id="namedview19"
     showgrid="false"
     fit-margin-top="0"
     fit-margin-left="0"
     fit-margin-right="0"
     fit-margin-bottom="0"
     inkscape:zoom="1.0727273"
     inkscape:cx="255.0071"
     inkscape:cy="180.26385"
     inkscape:window-x="0"
     inkscape:window-y="0"
     inkscape:window-maximized="0"
     inkscape:current-layer="Ebene_1" /><rect
     style="fill:#3fa9f5;fill-opacity:1;stroke:#646464;stroke-width:12.69999981;stroke-linecap:round;stroke-linejoin:round;stroke-miterlimit:4;stroke-dasharray:none;stroke-opacity:1"
     id="rect4153"
     width="192.03391"
     height="68.983047"
     x="461.6806"
     y="6.7008495" /><rect
     style="fill:#3fa9f5;fill-opacity:1;stroke:#646464;stroke-width:12.69999981;stroke-linecap:round;stroke-linejoin:round;stroke-miterlimit:4;stroke-dasharray:none;stroke-opacity:1"
     id="rect4153-2"
     width="192.03391"
     height="68.983047"
     x="542.78229"
     y="144.66695" /><path
     style="fill:none;fill-rule:evenodd;stroke:#646464;stroke-width:12.69999981;stroke-linecap:round;stroke-linejoin:miter;stroke-miterlimit:4;stroke-dasharray:none;stroke-opacity:1"
     d="m 454.22298,42.124579 c -142.84317,0 -45.18202,84.830511 -199.49152,84.830511 211.8114,0 96.43077,54.0678 283.38984,54.0678"
     id="path3351"
     inkscape:connector-curvature="0"
     sodipodi:nodetypes="ccc" /><rect
     style="fill:#ffffff;fill-opacity:1;stroke:#646464;stroke-width:3.56128883;stroke-linecap:round;stroke-linejoin:round;stroke-miterlimit:4;stroke-dasharray:none;stroke-opacity:1"
     id="rect4172"
     width="21.750713"
     height="21.750713"
     x="450.68964"
     y="30.962019" /><rect
     style="fill:#ffffff;fill-opacity:1;stroke:#646464;stroke-width:3.56128883;stroke-linecap:round;stroke-linejoin:round;stroke-miterlimit:4;stroke-dasharray:none;stroke-opacity:1"
     id="rect4172-6"
     width="21.750713"
     height="21.750713"
     x="531.87457"
     y="170.14752" /><rect
     x="125.26897"
     y="35.009777"
     width="69.917564"
     height="68.460945"
     id="rect3"
     style="fill:#1b1464" /><rect
     x="131.09543"
     y="11.703917"
     width="10.196312"
     height="23.305855"
     id="rect5"
     style="fill:#1b1464" /><path
     d="m 121.53129,220 c 0,-21.84924 17.54203,-38.71103 39.18005,-38.71103 21.63949,0 39.18006,16.86179 39.18006,38.71103 l -78.36011,0 z m 170.21431,-0.23597 c 0,-72.30496 -58.94488,-130.977452 -131.24693,-130.977452 -72.30349,0 -131.366352,58.669582 -131.366352,130.973072 l 0,0.24035 262.729822,0 -0.11654,-0.23597 z"
     id="path7"
     inkscape:connector-curvature="0"
     style="fill:#3fa9f5" /><polyline
     points="34.16,171.822 25.117,148.975 39.149,134.942 61.997,143.985 "
     id="polyline9"
     style="fill:#3fa9f5"
     transform="matrix(1.4566159,0,0,1.4566159,0,-100.45552)" /><polyline
     points="158.16,143.984 181.008,134.942 195.04,148.975 185.998,171.822 "
     id="polyline11"
     style="fill:#3fa9f5"
     transform="matrix(1.4566159,0,0,1.4566159,0,-100.45552)" /><polygon
     points="220,210.234 220,220 197.854,220 197.702,200.395 "
     id="polygon13"
     style="fill:#3fa9f5"
     transform="matrix(1.4566159,0,0,1.4566159,0,-100.45552)" /><polygon
     points="22.59,200.395 22.61,220 0,220 0,210.234 "
     id="polygon15"
     style="fill:#3fa9f5"
     transform="matrix(1.4566159,0,0,1.4566159,0,-100.45552)" /><polygon
     points="109.696,68.965 140.732,100 78.661,100 "
     id="polygon17"
     style="fill:#1b1464"
     transform="matrix(1.4566159,0,0,1.4566159,0,-100.45552)" /></svg>