<?xml version="1.0" encoding="UTF-8"?>
<!DOCTYPE svg PUBLIC "-//W3C//DTD SVG 1.1//EN" "http://www.w3.org/Graphics/SVG/1.1/DTD/svg11.dtd">
<svg version="1.1" xmlns="http://www.w3.org/2000/svg" xmlns:xlink="http://www.w3.org/1999/xlink" x="0" y="0" width="480" height="480" viewBox="0, 0, 480, 480">
  <g id="Calque_1">
    <path d="M408,16 C438.928,16 464,41.072 464,72 L464,408 C464,438.928 438.928,464 408,464 L72,464 C41.072,464 16,438.928 16,408 L16,296.002 L69.339,296.002 C89.715,296.002 105.993,279.497 105.993,259.12 L105.992,242.19 C190.296,243.397 214.83,265.317 241.661,288.777 C267.502,311.375 296.48,335.662 371.989,336.261 L371.993,344.57 C372.002,364.947 388.693,382 409.069,382 L463.991,382 L463.991,356 L409.069,356 C402.189,356 396.991,351.449 396.991,344.569 L396.991,308.32 C396.991,301.44 402.189,296 409.069,296 L463.991,296 L463.991,272 L409.069,272 C388.693,272 372.002,287.943 371.993,308.32 L371.99,316.908 C300.63,316.672 280.362,296.883 254.41,274.189 C232.267,254.825 206.244,233.534 148.914,225.789 C149.412,225.361 149.872,224.945 150.353,224.505 C161.391,214.382 167.343,202.153 173.167,191.593 C178.99,181.034 184.469,172.221 193.444,166.061 C200.725,161.064 211.08,157.338 226.992,156.647 L226.993,165.123 C226.997,185.5 243.431,202.999 263.808,202.999 L411.141,202.999 C431.517,202.999 447.993,185.5 447.993,165.123 L447.993,128.874 C447.993,108.497 431.517,91.999 411.141,91.999 L263.808,91.999 C243.431,91.999 226.983,108.496 226.993,128.874 L226.998,137.281 C207.794,138.053 193.238,142.713 182.496,150.086 C169.469,159.028 162.277,171.247 156.21,182.247 C150.144,193.247 145.009,203.104 137.25,210.218 C130.497,216.411 121.157,221.193 105.993,222.976 L105.993,222.579 C106.111,202.203 89.715,186.002 69.339,186.002 L16,186.002 L16,72 C16,41.072 41.072,16 72,16 L408,16 z" fill="#000000"/>
    <path d="M16,211.002 L69.339,211.002 C76.219,211.002 81.992,215.991 81.992,222.871 L81.992,259.12 C81.992,266 76.219,272.002 69.339,272.002 L16,272.002 L16,211.002 z" fill="#000000"/>
    <path d="M411.135,116.997 C418.015,116.997 422.987,121.992 422.987,128.872 L422.987,165.122 C422.987,172.002 418.015,176.998 411.135,176.998 L263.802,176.998 C256.923,176.998 250.99,172.002 250.99,165.122 L250.99,128.872 C250.99,121.993 256.923,116.997 263.802,116.997 L411.135,116.997 z" fill="#000000"/>
  </g>
</svg>
