<svg clip-rule="evenodd" fill-rule="evenodd" height="512" image-rendering="optimizeQuality" shape-rendering="geometricPrecision" text-rendering="geometricPrecision" viewBox="0 0 1706.66 1706.66" width="512" xmlns="http://www.w3.org/2000/svg" xmlns:xodm="http://www.corel.com/coreldraw/odm/2003"><g id="Layer_x0020_1"><path d="m1035.54 759.44c-73.04 0-108.75-88.41-57.76-139.41l425.65-425.65-158.76-14.44c-110.61-10.04-99.57-163.29 2.37-163.29.55 0 1.07.02 1.62.04l398.44 24.72c13.17.82 23.65 11.31 24.48 24.46l25.07 398.77c2.77 41.58-34.15 83.35-81.64 83.35-42.42 0-77.49-34.11-81.59-79.34l-14.44-158.75-425.65 425.67c-15.38 15.36-35.9 23.85-57.78 23.85z"/><path d="m123.51 310.48v1295.16h1295.18v-1043.13c0-77.48 117.71-77.48 117.71 0v1047.27c0 62.63-50.94 113.55-113.57 113.55h-1303.48c-62.63 0-113.55-50.92-113.55-113.55v-1303.46c0-62.63 50.92-113.55 113.55-113.55h1047.26c77.48 0 77.48 117.71 0 117.71h-1043.1z"/></g></svg>