<?xml version="1.0" encoding="UTF-8"?>
<svg width="24" height="24" viewBox="0 0 24 24" xmlns="http://www.w3.org/2000/svg">
    <!-- Heart shape -->
    <path d="M12 21.35l-1.45-1.32C5.4 15.36 2 12.28 2 8.5 2 5.42 4.42 3 7.5 3c1.74 0 3.41.81 4.5 2.09C13.09 3.81 14.76 3 16.5 3 19.58 3 22 5.42 22 8.5c0 3.78-3.4 6.86-8.55 11.54L12 21.35z" 
          fill="#aaa" opacity="0.9"/>
    
    <!-- Pulse lines -->
    <path d="M16 12l2-2 2 2" stroke="white" stroke-width="1.5" stroke-linecap="round" stroke-linejoin="round"/>
    <path d="M20 12l2-2 2 2" stroke="white" stroke-width="1.5" stroke-linecap="round" stroke-linejoin="round"/>
    
    <!-- Arrow indicating outgoing -->
    <path d="M22 8l2 2-2 2" stroke="white" stroke-width="1.5" stroke-linecap="round" stroke-linejoin="round"/>
</svg> 